<?xml version="1.0" encoding="utf-8"?>
<!-- Generator: Adobe Illustrator 16.0.0, SVG Export Plug-In . SVG Version: 6.00 Build 0)  -->
<!DOCTYPE svg PUBLIC "-//W3C//DTD SVG 1.1//EN" "http://www.w3.org/Graphics/SVG/1.1/DTD/svg11.dtd">
<svg version="1.1" id="Layer_1" xmlns="http://www.w3.org/2000/svg" xmlns:xlink="http://www.w3.org/1999/xlink" x="0px" y="0px"
	 width="1221.334px" height="1221.16px" viewBox="0 0 1221.334 1221.16" enable-background="new 0 0 1221.334 1221.16"
	 xml:space="preserve">
<g transform="translate(-117.131414,1308.693656) scale(0.100000,-0.100000)">
	<path fill="#8BA998" d="M6984.995,13084c-26.992-2.002-115-8.999-195-13.999c-1138.994-85-2278.994-519.004-3199.995-1221.001
		C1764,10460.002,874,8202.004,1260.001,5935.007c411.001-2414.004,2270-4372.012,4666.997-4914.004
		c456.006-104.004,844.004-145,1352.998-145.996c350,0,486.006,7.988,780,45.996
		c2531.006,322.988,4599.004,2195.996,5174.004,4684.004c107.998,466.992,150.996,858.984,150.996,1374.995
		c0,515.996-42.998,910-150.996,1372.002c-500.996,2165.996-2137.998,3890.995-4272.998,4502.997
		c-367.998,105-722.998,170.996-1135,210.996C7676.001,13080.001,7101.001,13092.999,6984.995,13084z M7634.995,12610.001
		c1248.008-78.003,2384.004-537.001,3334.004-1347.001c159.004-135,465-441.002,600-597.998
		c775-905,1230.996-1989.004,1342.998-3200c17.002-182.998,17.002-757.007,0-939.995c-72.002-773.008-288.994-1515-628.994-2152.012
		l-56.006-105l-63.994,64.004c-58.008,55.996-182.002,196.992-268.008,303.008c-30,36.992-30.996,36.992-130,46.992
		c-117.998,10.996-251.992,3.008-306.992-19.004c-37.002-15-45-14.004-126.006,5c-47.998,12.012-107.998,24.004-132.998,27.012
		c-49.004,6.992-124.004-8.008-150-31.016c-17.998-15.996-77.998-2.988-120.996,27.012c-14.004,10.996-29.004,19.004-33.008,19.004
		c-2.998,0-27.998,17.988-53.994,40c-26.006,21.992-76.006,51.992-112.002,65.996c-104.004,41.992-217.002,104.004-232.002,126.992
		c-17.998,28.008-45,167.012-52.998,272.012c-7.002,97.988-17.998,136.992-55,195.996
		c-52.998,84.004-225.996,176.992-382.998,205.996c-110,20.996-202.998,50-237.998,74.004c-36.006,25.996-64.004,80.996-84.004,165
		c-20.996,91.992-32.998,112.988-110.996,184.004c-93.008,83.984-134.004,105.996-234.004,125
		c-92.002,16.992-182.998,10-265.996-19.004c-22.002-8.008-74.004-20-115-27.012c-65-10.996-79.004-10-128.008,6.016
		c-30,10-63.994,23.984-75,30.996c-47.998,30-136.992,45.996-218.994,40c-45-3.008-125-9.004-177.998-12.012l-98.008-6.992
		l-73.994,70c-59.004,56.992-86.006,75-137.998,91.992c-89.004,30-108.008,45-108.008,86.016c0,45,16.006,83.984,48.008,117.988
		c46.992,50,81.992,60.996,300.996,92.012c117.998,16.992,132.998,25.996,165.996,100c13.008,27.988,48.008,101.992,79.004,165
		c30.996,62.988,55.996,118.989,55.996,124.995c0,32.998-58.994,127.002-117.998,188.994
		c-150.996,158.008-160.996,182.002-107.002,263.008c37.002,55,38.008,57.998,25,97.998c-6.992,22.002-13.994,62.998-16.992,90
		c-4.004,47.002-2.002,50.996,28.994,72.002c70,46.992,149.004,56.992,467.998,57.998c162.002,0,303.008,3.994,313.008,8.994
		c30,14.004,12.998,31.006-39.004,39.004c-145,22.998-167.998,30-200.996,64.004c-41.006,40.996-65,46.992-151.006,38.994
		c-172.998-15.996-282.002-17.998-348.994-7.002c-67.002,12.002-70,13.008-65,37.002c2.998,19.004,8.994,22.998,20.996,17.998
		c27.998-13.994,259.004-15.996,349.004-3.994c47.998,5.996,108.994,17.998,135,25.996l47.998,16.006l35.996-41.006
		c42.998-50.996,80-70.996,130-70.996c67.002,0,150-26.006,221.006-67.998c95.996-59.004,135-62.002,250-22.002
		c105,35.996,137.998,35,207.998-6.006C9844.995,7783,9913.003,7793,9993.003,7858c15.996,12.002,38.994,22.002,50.996,22.002
		c42.998,0,82.998,30,119.004,87.998c95.996,155.996,65.996,230-83.008,200.996c-47.998-8.994-83.994-8.994-167.998,1.006
		c-58.994,7.002-117.002,15.996-127.998,20.996c-12.002,4.004-35.996,32.998-52.998,62.998
		c-17.998,31.006-37.998,59.004-44.004,63.008c-7.002,5-60.996,7.998-122.002,8.994c-60,0-133.994,4.004-162.998,9.004
		c-43.994,5.996-63.994,2.998-125.996-19.004c-41.006-13.994-82.998-25.996-92.998-25.996c-11.006,0-41.006,13.994-67.002,30
		c-67.998,42.998-92.998,45.996-196.006,20c-85.996-22.998-90-22.998-140.996-7.002c-27.998,9.004-62.998,17.002-77.998,17.002
		c-39.004,0-97.998-44.004-112.002-85c-10-26.006-17.002-34.004-29.004-29.004c-7.998,2.998-22.998,9.004-31.992,11.006
		c-34.004,10-26.006,25,95.996,185c114.004,148.994,125.996,175,135,298.994c5.996,82.998,12.002,112.998,32.002,146.006
		c12.998,23.994,28.994,45,35.996,46.992c6.006,3.008,57.998,10,114.004,17.002c160,17.998,670.996-5.996,903.994-42.998
		c71.006-10.996,175-22.998,231.006-27.002c90.996-5.996,102.998-8.994,125-32.002c57.002-60.996,113.994-65,205-13.994
		l63.994,35.996h167.002c92.998,0,207.002,0,255,0c57.998-0.996,100,4.004,124.004,14.004c37.998,15.996,50,12.998,103.994-26.006
		c14.004-10,66.006-25,115-32.998c111.006-20,150-30,184.004-52.998c22.002-14.004,52.002-17.002,190.996-17.002
		c152.002-0.996,168.008,1.006,207.002,22.002c55,29.004,62.002,27.998,110-12.998c49.004-42.002,81.006-55,134.004-55
		c52.002,0,73.994,12.998,87.002,50c10,27.002,15,30,55.996,30c25,0,75-7.002,110.996-15c73.008-17.002,125-12.002,149.004,13.994
		c7.998,9.004,17.998,46.006,22.002,83.008c5.996,61.992,5,66.992-16.006,77.998c-13.994,7.002-41.992,10-68.994,7.002
		c-70-8.008-146.006,15.996-204.004,63.994c-68.994,59.004-92.002,56.006-172.002-20c-35-33.994-70-60.996-78.994-60.996
		c-45,0-122.002,25.996-166.006,55.996c-60.996,42.002-105,45-143.994,9.004c-37.002-35-72.998-32.998-94.004,5
		c-18.994,32.998-48.994,45.996-87.002,35.996c-13.994-2.998-35-8.994-47.998-12.002c-17.002-3.994-33.994,4.004-65.996,30
		c-47.998,40-82.998,45-137.002,20c-32.998-15.996-37.998-15-115,9.004c-89.004,29.004-79.004,30.996-217.002-27.998
		c-57.002-24.004-102.002-27.002-102.002-6.006c0,4.004-16.992,27.002-38.994,50c-39.004,42.002-55,45-91.006,16.006
		c-7.998-7.002-48.994-15-90-17.002c-50-2.998-90-10.996-117.998-25.996l-43.994-21.006l-52.002,29.004
		c-67.002,37.998-97.998,37.998-125,2.998c-12.002-15.996-25-32.998-30-39.004c-10-11.992-75-5.996-191.006,19.004
		c-121.992,25-290,39.004-535,42.002c-135,2.002-241.992,7.998-258.994,13.994c-15,6.006-59.004,41.006-97.002,78.008L9031.001,9263
		l5.996,57.002c5,52.998,4.004,58.994-17.002,70c-17.998,10-35,10-75,0.996c-61.992-13.994-85.996-7.002-240.996,74.004
		c-145,75-170.996,95.996-185,147.998c-5.996,22.998-15,49.004-20,57.002s-22.998,40.996-39.004,72.998
		c-25,47.002-40,62.002-72.998,77.002c-22.998,10.996-50,20-60,20c-30.996,0-215.996,77.998-263.994,112.002
		c-79.004,53.994-141.006,127.998-209.004,247.998c-35.996,62.998-80.996,130.996-100,150c-19.004,20-34.004,40.996-34.004,46.996
		c0,6.002,19.004,14,43.008,17.002c66.992,10,80,10,113.994-5c29.004-12.002,37.002-11,77.998,9l46.006,22.002l30-35
		c30-33.004,33.994-35,97.998-35h67.998l12.002-54.004c15-65.996,27.002-77.998,92.002-84c37.002-2.998,58.994-11.996,82.002-32.998
		c30-27.002,33.994-28.002,125.996-27.002c77.002,1.002,122.002-5,227.002-30c93.994-22.998,143.994-30,175-26
		c23.994,3.002,70.996,1,102.998-5c55-10,62.998-8.994,117.998,16c62.998,28.004,54.004,29,137.998-18.002
		c29.004-15.996,51.006-18.994,138.008-16.992l101.992,1.992l29.004-30.996c39.004-42.998,67.998-47.998,150-30
		c105.996,24.004,140.996,42.002,140.996,70c0,26-16.992,38.998-140,112.002c-35.996,20.996-93.994,56.996-130,80
		c-35.996,22.998-93.994,56.996-130,75c-35.996,17.998-81.992,47.998-102.998,65.996c-25.996,24.004-47.002,34.004-70,34.004
		c-25,0-35.996,6.996-48.994,27.998c-13.008,21-28.008,28.998-69.004,37.002c-27.998,5.996-55,16.996-60,25
		c-4.004,7.998-15.996,32.998-27.002,55c-10,21.996-30,46.996-45,55c-22.998,12.998-32.002,11.996-93.994-8.004
		c-37.002-11.996-76.006-21.996-85-21.996c-10,0-35,15.996-57.002,35c-41.006,37.998-71.006,42.998-111.006,20
		c-15-9.004-55-15-100-15s-85-6.002-100-15c-40.996-24.004-70.996-17.002-140.996,30c-52.998,35.996-80,46.996-132.002,53.998
		c-35.996,5-73.994,14-85,20c-35.996,19-67.002,11.998-130.996-28.998c-72.998-48.004-101.006-50-150-11.002
		c-54.004,41.998-75,46.002-124.004,21.002c-22.998-12.002-52.998-26.002-65-31.002c-22.998-8.998-23.994-8.002-18.994,37.998
		c7.998,85,67.998,367.002,86.992,411.002c11.006,23.998,28.008,55,39.004,70c19.004,27.002,155.996,102.002,185.996,102.002
		c8.008,0,21.006-12.002,27.002-27.002c14.004-32.002,56.006-92.002,77.998-111.002c11.006-10,40-11.996,111.006-7.998l95.996,6.002
		l49.004-35c47.998-35,50-36.002,138.994-33.004l90,3.004l20-43.004c32.002-66,41.006-70,152.002-82.998
		c101.006-12.002,102.002-12.002,167.998,16.002c100,42.998,127.002,86.996,83.008,137.998
		c-29.004,32.998-67.002,47.002-128.008,47.002c-81.992,0-118.994,51.996-120,166.996c0,24-6.992,48.004-15.996,57.002
		c-17.002,17.998-72.998,20-142.002,6.998c-42.002-7.998-45.996-6.998-92.998,35c-60,53.002-125,74.004-234.004,74.004
		c-48.994,0-110.996,7.998-155.996,20c-95,25-125.996,25-169.004-2.002c-35.996-22.002-103.994-60-152.998-85
		c-42.002-22.002-120.996-104-162.002-167.002c-48.994-76.998-70.996-90-125.996-75.996c-24.004,6.996-52.002,17.998-62.998,25.996
		c-25,17.002-86.006,106-79.004,116c2.002,5,22.998,8.004,47.002,8.004c72.998,0,102.002,15.996,135,73.998
		c37.998,66.002,54.004,79,115.996,100c64.004,21.002,76.006,31.002,114.004,91.002c52.998,83.998,37.002,132.998-40.996,120.996
		c-32.002-5-61.006,0-113.008,19.004c-80,27.998-93.994,28.998-183.994,13.998c-57.002-10-71.006-17.002-101.006-50
		c-30-33.002-43.994-40-106.992-52.002c-54.004-10-80-21-106.006-43.998c-27.998-24-47.998-32.002-97.002-37.998
		c-72.998-8.004-96.992-27.002-105.996-85c-7.998-49.004-15.996-56.002-100.996-83.004c-62.002-20-71.006-26-99.004-71.996
		c-17.998-28.004-50.996-70-74.004-95c-53.994-59.004-55-60-75.996-162.002c-15-72.002-15.996-89-5-102.002
		c20.996-25,42.998-19,107.002,26c87.998,61.002,115.996,70,190,63.004c87.998-10,110-2.002,133.994,45c25,47.998,49.004,65,115,80
		c28.008,5.996,60,16.996,72.002,25c20,13.998,24.004,10.996,57.998-34.004c33.008-44,133.008-111.998,198.008-136.998
		c11.992-3.998,16.992-17.002,16.992-48.002c0-55.996-36.992-90-155-142.998c-125.996-57.002-152.998-64-233.994-62.002
		c-54.004,1-76.006-2.998-90-15c-22.002-20-30-20-69.004,0c-37.998,18.002-68.994,6-77.998-31.998
		c-10.996-45-35.996-48.002-110.996-13.002c-78.008,35-141.006,40-212.002,15c-24.004-9-67.998-15.996-97.002-15.996
		c-47.998,0-55-3.004-70.996-27.002c-29.004-47.998-37.002-51.002-136.006-45c-90,3.998-92.998,3.998-127.002-24l-33.994-28.998
		l-212.998-4.004c-213.008-2.998-214.004-2.998-230-26.998c-8.008-13.002-13.008-31-9.004-38.998c7.002-20-2.998-45-17.998-45
		c-7.002,0-27.002-11.002-46.006-25c-27.998-21.002-45-25-100.996-25c-67.998,0-82.998-7.002-90-43.004
		c-2.998-12.998-28.999-27.998-80-47.998c-41.997-16-90-43.002-107.998-61c-60-57.998-65-77.998-68.999-252.998
		c-3.999-181.006-7.002-172.998,71.997-192.998c30-8.008,65-27.002,88.003-47.002c43.999-41.006,60.996-42.002,165.996-16.006
		c43.003,11.006,105.005,22.002,140.005,26.006c71.992,7.998,95.996,25.996,90,65.996c-4.004,22.998,0,27.998,25,32.998
		c15.996,3.008,50.996,6.006,76.992,6.006c60,0,74.004,15,96.006,102.998c22.998,92.998,42.002,107.002,145,107.002
		c87.002,0,118.994,16.996,118.994,62.998c0,31,9.004,40,59.004,62.002c24.004,10.996,70.996,40.996,104.004,66.996
		c32.998,26.002,61.992,48.004,65.996,49c70.996,8.002,112.998,28.002,157.002,75c22.998,24.004,35.996,31,52.002,27.002
		c17.998-4,21.992-12.998,21.992-45c0-31.002,7.002-49,31.006-75l30-35l-22.998-25c-49.004-52.998-152.002-116.002-258.008-159
		c-105.996-43.002-115-43.998-247.998-51c-75-2.998-147.002-10-160-14.004c-30-10.996-47.002-55.996-32.998-85.996
		c12.998-27.998,37.998-29.004,195.996-9.004c121.006,16.006,135,20,248.008,65c213.994,86.006,330,161.006,481.992,315.004
		c181.006,181.998,254.004,245,289.004,251.002c17.002,1.996,75,5.996,129.004,7.998c105.996,2.998,111.992-1.002,81.992-52.998
		c-28.994-50-6.992-100,44.004-100c60,0,77.002-29.004,105-180c9.004-47.002,22.998-121.002,30.996-165l16.006-80l-32.998-27.998
		c-36.006-30-113.008-57.002-163.008-57.002c-55,0-138.994-30-161.992-57.998c-22.002-26.006-23.008-26.006-166.006-27.002h-143.994
		l-59.004-47.998c-42.998-36.006-62.998-47.002-77.998-42.002c-12.002,2.998-51.006,8.994-87.998,12.002
		c-55,5-74.004,1.992-105-14.004c-56.006-29.004-87.002-34.004-136.006-22.998c-90,20-142.998-20-135-101.006l2.998-33.994l90-5
		c77.002-4.004,96.006-9.004,131.006-32.998c42.002-28.008,97.002-38.008,147.002-24.004c65.996,17.998,17.998-27.998-135-127.998
		c-104.004-67.998-167.002-95-223.008-95c-35,0-128.994,27.998-250,75.996c-63.994,25-81.992,27.998-210,27.998
		c-128.994,1.006-151.992-1.992-290-35.996c-81.997-20-223.994-52.002-314.995-72.002c-482.998-100.996-480-100-480-130
		c0-47.002,73.003-47.998,202.002-5c83.999,27.002,111.997,31.006,282.998,40c215,10,299.995,19.004,464.995,50
		c202.002,36.006,331.006,16.006,430-68.994c32.002-27.002,33.008-31.006,22.002-56.006c-10.996-23.994-50-52.998-128.994-97.002
		c-16.006-8.994-40-37.998-57.002-71.992c-27.002-54.004-31.006-58.008-85-73.008c-31.006-7.998-62.002-16.992-70-20
		c-7.002-1.992-90-10.996-185-18.994c-255-22.002-306.001-34.004-306.001-75c0-37.002,27.998-45,143.999-44.004
		c87.998,1.006,145,9.004,275.996,37.998c192.002,43.008,230,62.002,316.006,155c50,54.004,80,75,165,118.008
		c57.002,27.998,145,67.998,193.994,87.998c163.008,67.002,299.004,130.996,360,170c57.002,37.002,145,118.994,229.004,213.994
		l37.998,44.004l67.002-9.004c35.996-3.994,112.002-7.998,167.998-7.998c55-0.996,105-3.994,109.004-7.998
		c10.996-12.002,112.998-9.004,135,2.998c15,7.998,33.994,5,80-10.996c72.002-24.004,113.994-17.002,168.994,28.994
		c32.002,27.002,36.006,28.008,53.008,13.008c10.996-9.004,56.992-21.006,120-29.004c175-22.998,182.998-25.996,250.996-72.998
		c85-57.998,117.998-201.006,97.998-417.002c-22.998-249.004-58.994-307.002-250.996-402.998
		c-200-99.004-247.002-149.004-292.998-306.006c-12.002-41.992-28.008-77.998-35-80.996c-7.002-2.998-36.006,10-65,27.998
		c-49.004,32.002-58.008,34.004-138.008,34.004c-118.994-1.006-237.998-15-250.996-31.006c-25-30,20-65,100.996-77.998
		c19.004-2.998,91.006-13.994,160-25.996c69.004-11.006,138.008-20,153.008-20c38.994,0,30.996-17.002-26.006-57.998
		c-60.996-44.004-130-59.004-307.002-67.002c-168.994-7.998-231.992,2.998-340.996,62.998l-67.002,35.996l-137.998-21.992
		c-137.002-23.008-137.998-23.008-184.004-66.006L6463.999,8073l-65,12.998c-110.996,22.998-162.998,15-192.998-30.996
		c-12.998-20-25-22.998-100-26.006c-77.998-3.994-87.998-5.996-111.006-30.996c-25.996-27.998-25.996-27.998-127.998-22.002
		c-83.994,6.006-107.998,4.004-133.994-10c-40-20-109.004-20.996-148.008,0c-15.996,7.998-47.998,17.998-71.992,21.006
		c-53.008,6.992-85-12.002-112.002-66.006c-21.001-40.996-37.002-50.996-77.002-50.996c-31.997,0-76.001-44.004-73.999-72.998
		c1.001-12.002,2.002-35,1.001-50L5250,7718l-110,7.002c-126.997,8.994-158.999,0-190-50
		c-36.001-57.998-61.001-62.002-242.998-39.004c-45,6.006-48.999,4.004-85-32.998c-20-20.996-52.002-64.004-70-95
		c-36.001-60-52.002-67.998-151.001-67.998c-41.001,0-47.998-4.004-95-56.006c-33.999-36.992-88.999-77.998-167.998-125.996
		c-103.003-62.002-128.003-72.002-200-84.004C3875,7163,3843.999,7152.004,3810,7127.004c-38.999-28.008-51.997-32.002-97.998-30
		c-81.001,3.994-120-30-136.001-118.008c-3.999-21.001-12.002-41.997-18.999-46.997c-7.002-5.996-73.003-20-147.002-30.996
		c-160-24.004-198.999-35.996-210-65.996c-6.997-17.012-23.999-26.016-76.997-40c-79.004-21.016-97.002-38.008-119.004-110
		c-7.998-30-23.999-66.016-36.001-80c-20-26.016-23.999-26.016-86.997-20c-76.001,7.988-170-12.012-203.003-42.012
		c-10.996-10-30.996-40.996-42.998-70c-27.002-60.996-47.998-75.996-135-96.992c-77.998-20-100-42.012-100-102.012
		c0-35.996-5-46.992-26.001-60.996c-38.999-25-46.997-56.992-28.999-110c13.999-40,13.999-47.988,1.001-66.992
		c-33.003-47.012-156.001-165-178.003-170.996c-12.998-3.008-43.999,0.996-68.999,8.984c-58.999,21.016-62.998,20-101.001-11.992
		c-17.998-15.996-40.996-31.992-50.996-35c-46.001-16.992-45-139.004,0.996-183.008c15-12.988,31.001-23.984,35-23.984
		c5,0,23.003,15,40,32.988C2059,5690.007,2134,5718.991,2154,5703.991c58.999-42.988,70-46.992,118.003-45.996
		c62.998,0.996,81.997,17.012,108.999,93.008c11.997,31.992,31.997,67.988,45,80c21.997,20,30,21.992,108.999,15
		c100-7.012,117.002-0.996,145,54.004c16.001,31.992,27.002,40,57.002,45c63.999,10.996,101.997,25.996,131.997,50.996
		c48.003,40,88.003,51.992,155,46.992c107.002-9.004,180,24.004,214.004,95.996l16.997,36.016l107.002,0.996
		c125,1.992,145,10.996,201.997,86.992l38.003,52.012h108.999h107.998l58.003,55.996l57.998,55.996l45-18.008
		c55-21.992,118.999-23.984,165-5l35,15v109.004v109.004l106.001-18.008c57.998-10,118.999-15,135-11.992
		c42.998,8.008,118.999,111.992,118.999,160.996c0,20.996,8.003,53.008,18.003,72.012c20,41.992,38.999,46.992,170,48.984
		c92.998,1.016,150.996,16.016,167.998,42.012c5,7.988,11.001,51.997,13.999,98.999l5,85l76.001,5
		c42.998,2.998,83.999,12.002,92.998,18.994c19.004,16.006,20,54.004,5,113.008c-8.999,32.998-8.999,56.992,0,100.996
		c11.001,50,17.002,60.996,50,80.996c21.001,13.008,46.001,37.002,56.001,52.002c85,134.004,127.998,164.004,231.997,164.004
		c37.002,0,74.004-4.004,82.002-9.004c7.002-5,25.996-37.998,40.996-75l28.008-65.996l-54.004-31.006
		c-65.996-36.992-74.004-50.996-74.004-127.998v-58.994l-66.992-22.002C5345,7248,5307.002,7228.996,5297.998,7218
		c-23.999-27.002-32.998-84.004-18.999-115c11.001-25,15-25,68.999-19.004c31.001,3.008,66.997,9.004,80.005,12.002
		c20.996,6.006,21.992,2.998,21.992-45c0-52.998,25-94.995,52.002-87.007c7.002,3.008,50,7.012,96.006,10l81.992,6.011v-69.995
		c0-57.012,4.004-74.004,20-90c24.004-24.004,30-24.004,75-6.016c41.006,17.012,48.008,30,69.004,128.008
		c19.004,86.997,7.002,78.003,147.998,106.997c39.004,9.004,71.006,23.008,99.004,47.002c45.996,37.998,57.998,37.998,145.996-2.002
		c27.998-12.998,62.002-23.994,75-23.994c45,0,97.002,20.996,119.004,47.998c18.994,24.004,20,35,15,92.998
		c-7.002,72.998-5,77.002,53.994,99.004c47.002,17.998,67.002,35.996,79.004,72.002c9.004,25.996,7.002,32.998-14.004,53.994
		c-13.994,14.004-35.996,24.004-52.998,24.004c-15.996,0-50,7.002-75.996,15.996c-41.006,14.004-50,22.998-66.006,59.004
		c-20.996,47.998-35,55-130,55c-35.996,0-90,7.002-120,15c-77.998,20.996-88.994,18.994-150-20l-52.998-34.004l-35.996,21.006
		c-20,11.992-52.998,31.992-74.004,45l-37.998,23.994l32.002,45c23.994,36.006,35,44.004,50.996,37.998
		c11.006-2.998,46.006-6.992,77.998-6.992c51.006-1.006,65,2.998,105,30.996c46.006,32.002,46.006,32.002,109.004,20.996
		c57.002-10.996,70-10,137.002,11.006c40.996,12.002,100.996,28.994,133.994,37.002c35,7.998,70,23.994,86.006,38.994
		c13.994,12.998,70,42.998,125,65c87.998,36.006,105.996,40,158.994,36.006c75-5,142.002-38.008,151.006-72.002
		c27.998-112.998-100-197.002-359.004-235c-65-10-122.998-22.002-127.998-27.002c-5.996-5.996-9.004-27.998-7.002-49.004
		c2.998-32.998,7.998-41.992,37.998-56.992c31.006-16.006,56.006-18.008,205-15c158.008,3.994,175,5.996,234.004,30.996
		c77.002,32.002,102.002,54.004,149.004,127.002c55.996,85.996,85,103.994,197.998,118.994c147.998,20,322.998-20,402.998-92.998
		c20.996-18.994,22.998-27.002,19.004-92.002c-4.004-58.994-13.008-87.998-51.006-165c-58.994-120.996-142.002-258.994-170-281.992
		c-12.002-10-32.002-27.002-43.994-37.002c-12.002-10-79.004-44.004-150-75c-249.004-108.999-341.006-179.995-366.006-284.995
		c-3.994-14.004-22.998-61.016-42.998-105c-27.998-61.016-52.998-95-104.004-146.016c-101.992-100-115-152.988-130-517.988
		c-5.996-135-15-262.012-20-282.012c-25.996-93.984-131.992-165-385-257.988c-221.992-80.996-311.992-130-403.994-219.004
		c-42.998-41.992-81.006-80.996-82.002-86.992c-5.996-17.012-180-177.012-247.002-228.008
		c-48.994-36.992-67.998-45.996-87.002-40.996c-13.994,2.988-24.995,10-24.995,15c0,15.996-57.998,39.004-97.002,39.004
		c-100-1.016-218.999-47.012-313.999-122.012c-30-24.004-95-59.004-146.997-80l-93.003-37.988l-536.997,5.996
		c-333.003,4.004-698.002,1.992-962.001-5.996c-432.998-12.012-828.999-15-858.999-5c-10,2.988-38.999,0.996-67.002-5
		c-123.999-26.016-111.001-28.008-135,25.996c-327.998,752.988-488.999,1510-488.999,2298.999
		c0,1237.002,402.002,2425,1156.001,3415.996c212.002,278.002,541.001,627.002,805,852.002
		c870,742.998,1905.996,1193.998,3033.994,1322.001C6973.003,12617.999,7341.997,12627.999,7634.995,12610.001z M5170,3308.991
		c833.003-16.992,2656.997-13.984,3084.995,5c350,15,1093.008,22.012,1166.006,10c32.998-5.996,38.994-11.992,62.002-65
		c28.994-66.992,46.992-77.988,133.994-80c96.006-1.992,1270,27.012,1792.998,45c62.002,2.012,49.004-25-70.996-148.984
		c-902.002-931.015-2112.998-1525-3404.004-1669.004c-1561.992-175-3109.995,302.988-4300.996,1327.988
		C3500,2848.991,3260,3080.007,3190,3160.007l-51.997,60l508.999-3.008l508.999-1.992l30,25c17.002,13.984,42.002,40,55,58.984
		l23.999,34.004l200-6.992C4575,3322.995,4892.002,3315.007,5170,3308.991z"/>
</g>
</svg>
